<?xml version="1.0" encoding="UTF-8" standalone="no"?>
<!-- Created with Inkscape (http://www.inkscape.org/) -->

<svg
   version="1.1"
   width="600"
   height="600"
   id="svg2"
   sodipodi:docname="ring2.svg"
   inkscape:version="1.2.2 (b0a84865, 2022-12-01)"
   xmlns:inkscape="http://www.inkscape.org/namespaces/inkscape"
   xmlns:sodipodi="http://sodipodi.sourceforge.net/DTD/sodipodi-0.dtd"
   xmlns="http://www.w3.org/2000/svg"
   xmlns:svg="http://www.w3.org/2000/svg"
   xmlns:rdf="http://www.w3.org/1999/02/22-rdf-syntax-ns#"
   xmlns:cc="http://creativecommons.org/ns#"
   xmlns:dc="http://purl.org/dc/elements/1.1/">
  <sodipodi:namedview
     id="namedview14"
     pagecolor="#ffffff"
     bordercolor="#000000"
     borderopacity="0.25"
     inkscape:showpageshadow="2"
     inkscape:pageopacity="0.0"
     inkscape:pagecheckerboard="0"
     inkscape:deskcolor="#d1d1d1"
     showgrid="false"
     inkscape:zoom="1.2424596"
     inkscape:cx="258.76094"
     inkscape:cy="267.21192"
     inkscape:window-width="1512"
     inkscape:window-height="916"
     inkscape:window-x="0"
     inkscape:window-y="38"
     inkscape:window-maximized="0"
     inkscape:current-layer="svg2" />
  <metadata
     id="metadata10">
    <rdf:RDF>
      <cc:Work
         rdf:about="">
        <dc:format>image/svg+xml</dc:format>
        <dc:type
           rdf:resource="http://purl.org/dc/dcmitype/StillImage" />
      </cc:Work>
    </rdf:RDF>
  </metadata>
  <defs
     id="defs8" />
  <path
  stroke="#0000ff"

     style="fill:none;stroke:#0000ff;stroke-width:7.35387;stroke-opacity:1"
     d="m 58.190283,595.54179 c -29.921213,0 -48.7101237,-16.48971 -48.7101237,-51.34638 V 359.71192 c 0,-33.56827 21.7660177,-55.43592 52.5896887,-55.43592 164.479642,0 307.463062,0.3394 475.644972,0.3394 36.43826,0 52.58969,10.91546 52.58969,55.43592 v 184.48349 c 0,29.00536 -23.77785,51.34639 -48.71013,51.34639 -161.1347,-0.11307 -322.26941,-0.22628 -483.404097,-0.33941 z"
     id="path896-7"
     sodipodi:nodetypes="ccccccccc" />
  <path
  stroke="#ff0000"

     style="fill:none;stroke:#ff0000;stroke-width:7.35387;stroke-opacity:1"
     d="m 57.387063,294.94272 c -29.921218,0 -48.710128,-16.48971 -48.710128,-51.34638 V 59.112855 c 0,-33.56827 21.76602,-55.43592 52.589693,-55.43592 164.479642,0 307.463052,0.3394 475.644962,0.3394 36.43826,0 52.58969,10.91546 52.58969,55.43592 V 243.93574 c 0,29.00536 -23.77785,51.34639 -48.71013,51.34639 -161.1347,-0.11307 -322.2694,-0.22628 -483.404087,-0.33941 z"
     id="path896-7-8"
     sodipodi:nodetypes="ccccccccc" />
</svg>
